PathFileType	4	(X/Y/Z)	..\data\2015002\dynamic\2015002_C4_04.trc
DataRate	CameraRate	NumFrames	NumMarkers	Units	OrigDataRate	OrigDataStartFrame	OrigNumFrames
100.000000	100.000000	4	52	mm	100.000000	42	168
Frame#	Time	L_IAS			L_IPS			R_IPS			R_IAS			L_FTC			L_FLE			L_FME			L_FAX			L_TTC			L_FAL			L_TAM			L_FCC			L_FM1			L_FM2			L_FM5			R_FTC			R_FLE			R_FME			R_FAX			R_TTC			R_FAL			R_TAM			R_FCC			R_FM1			R_FM2			R_FM5			CV7			TV10			SXS			SJN			L_SIA			L_SRS			L_SAA			L_SAE			L_HLE			L_HME			L_UOA			L_RSP			L_UHE			L_HM2			L_HM5			R_SIA			R_SRS			R_SAA			R_SAE			R_HLE			R_HME			R_UOA			R_RSP			R_UHE			R_HM2			R_HM5			
		X1	Y1	Z1	X2	Y2	Z2	X3	Y3	Z3	X4	Y4	Z4	X5	Y5	Z5	X6	Y6	Z6	X7	Y7	Z7	X8	Y8	Z8	X9	Y9	Z9	X10	Y10	Z10	X11	Y11	Z11	X12	Y12	Z12	X13	Y13	Z13	X14	Y14	Z14	X15	Y15	Z15	X16	Y16	Z16	X17	Y17	Z17	X18	Y18	Z18	X19	Y19	Z19	X20	Y20	Z20	X21	Y21	Z21	X22	Y22	Z22	X23	Y23	Z23	X24	Y24	Z24	X25	Y25	Z25	X26	Y26	Z26	X27	Y27	Z27	X28	Y28	Z28	X29	Y29	Z29	X30	Y30	Z30	X31	Y31	Z31	X32	Y32	Z32	X33	Y33	Z33	X34	Y34	Z34	X35	Y35	Z35	X36	Y36	Z36	X37	Y37	Z37	X38	Y38	Z38	X39	Y39	Z39	X40	Y40	Z40	X41	Y41	Z41	X42	Y42	Z42	X43	Y43	Z43	X44	Y44	Z44	X45	Y45	Z45	X46	Y46	Z46	X47	Y47	Z47	X48	Y48	Z48	X49	Y49	Z49	X50	Y50	Z50	X51	Y51	Z51	X52	Y52	Z52	

43	0.42	252.3726806640626	984.5118408203127	-407.6367797851564	63.65625000000001	987.6721801757815	-318.5126342773438	64.67636871337892	981.9631958007815	-218.1886749267579	254.7815856933594	976.3040771484377	-154.8427886962891	180.2529907226563	905.4808349609377	-477.7120361328126	181.3819274902344	476.4954528808595	-433.7768554687501	166.5263214111328	479.1937866210939	-299.4663696289063	150.693603515625	416.347381591797	-432.4229431152345	205.3338623046876	399.1759033203126	-367.8039855957032	69.70877075195314	70.11566162109376	-380.9276733398438	89.58636474609376	85.4232635498047	-289.6961975097657	6.872471809387209	20.18029212951661	-316.7082519531251	220.1729431152344	16.82659912109375	-300.1536865234376	224.7479553222657	36.35667800903321	-359.9550781250001	174.6370544433594	19.8462085723877	-418.4378662109376	207.0424499511719	878.9930419921877	-90.62705993652345	349.7190551757813	492.8832397460939	-84.03733825683595	398.6588745117189	488.310272216797	-206.5167236328126	322.7413635253907	443.1192016601564	-88.29757690429689	400.6474914550782	418.6697692871095	-123.969352722168	199.1196594238282	118.1795959472657	-149.7780914306641	262.1764526367188	123.859619140625	-224.7891998291016	161.7254791259766	79.69768524169923	-225.4681396484376	358.9190368652344	27.70433044433594	-193.1242218017579	353.5626525878907	50.70455551147462	-139.5747833251953	285.4551696777344	37.85656356811524	-94.49949645996095	141.2373352050782	1476.10791015625	-286.6312866210938	48.54048919677736	1226.193725585938	-278.5720520019532	298.3383789062501	1170.653442382813	-274.4746398925782	256.7841491699219	1375.871704101563	-280.1751403808594	49.70746994018556	1252.390502929688	-397.4665832519532	80.41088867187501	1405.427001953125	-372.3468322753907	136.0766296386719	1406.903076171875	-461.7778320312501	190.822006225586	1394.834716796875	-487.9591064453126	197.973861694336	1086.45947265625	-547.2546997070314	147.4084167480469	1067.600830078125	-479.4857482910157	167.8465881347657	1045.583740234375	-544.7341308593751	339.4540710449219	869.647399902344	-482.8085327148439	307.6983032226563	861.594421386719	-555.2982788085939	391.4280090332032	781.5462646484377	-480.6463012695314	324.3128051757813	780.3765869140627	-563.3844604492189	43.21117019653321	1252.766479492188	-161.2384796142578	81.70616912841798	1403.872924804688	-178.707748413086	137.3056945800782	1408.51611328125	-97.86672210693362	177.7282257080078	1405.14794921875	-72.85475158691408	123.2595901489258	1099.269897460938	-2.286483049392701	98.40749359130862	1085.301879882813	-90.26217651367189	77.71046447753908	1059.172485351563	-29.25879096984864	209.0255584716797	845.353942871094	-19.92105102539063	160.6061401367188	853.7222900390627	40.59137725830079	227.7776184082032	743.8027343750001	5.626234054565431	143.9845733642578	777.686706542969	56.83560180664064	
44	0.43	264.3096618652344	982.944519042969	-407.1827697753907	75.74134826660158	986.684997558594	-317.7547302246094	76.76480865478517	980.9107666015627	-217.5407104492188	266.9963989257813	975.0424804687502	-154.2971496582032	191.5074462890625	904.0552978515627	-477.089813232422	185.3337860107422	475.5591125488282	-433.4812927246095	170.2152252197266	478.5086975097657	-299.0815124511719	154.0222320556641	415.8954162597657	-432.118865966797	208.2922515869141	398.1202697753907	-367.4851684570313	69.87534332275392	70.21942138671876	-380.8351745605469	89.87641906738283	85.4077606201172	-289.5155334472657	6.763711929321291	20.45801734924317	-316.6613159179688	220.1939086914063	16.79157829284668	-300.1478576660157	224.808334350586	36.30060577392579	-359.9768981933594	174.5965270996094	19.79895973205567	-418.4600830078126	219.0274810791016	878.5135498046877	-90.22171020507814	364.2433776855469	492.6046752929689	-84.06359863281251	412.1991577148439	488.0249633789064	-206.7041931152344	339.4428710937501	441.1578063964845	-88.0315628051758	418.0345764160157	420.2965698242189	-123.1519012451172	238.6029205322266	108.0083389282227	-145.4804229736328	301.8452148437501	116.5692367553711	-220.0883178710938	205.0304412841797	65.84547424316408	-220.991195678711	404.5765380859376	27.58291053771973	-186.0103759765625	397.1311340332032	50.82823562622072	-132.8161010742188	329.5015258789063	34.39879608154298	-88.23082733154298	153.9449005126953	1474.9794921875	-285.0682373046876	60.87926101684572	1225.18505859375	-278.0291137695313	310.6102600097657	1169.165649414063	-273.3144836425782	269.3409118652344	1374.629516601563	-278.3876037597657	62.91442108154298	1251.854858398438	-397.2168884277345	93.43125152587892	1404.673950195313	-371.3827514648438	149.7559509277344	1406.561157226563	-460.8451538085939	204.6799926757813	1394.630004882813	-486.2963256835939	216.9063720703126	1087.118896484375	-548.1791381835939	165.5711822509766	1066.819091796875	-481.3062133789064	187.5460205078125	1045.551879882813	-546.4168701171876	362.0060729980469	873.2312011718752	-482.2771301269532	331.3902282714844	864.464538574219	-555.0946655273439	416.1943359375001	786.6060791015627	-479.4334106445314	350.1674194335938	783.5386352539065	-562.9152221679689	55.4319305419922	1251.083374023438	-161.2149200439453	93.93779754638673	1402.359008789063	-177.9098510742188	148.7077789306641	1407.098510742188	-96.91197204589847	188.566390991211	1403.705078125	-71.34030151367189	128.9785308837891	1099.199584960938	-0.746554732322693	105.8574600219727	1085.057373046875	-89.11085510253908	83.47920227050783	1059.513549804688	-28.42943191528321	213.2908630371094	844.6115722656252	-15.18745613098145	162.3605499267578	853.187683105469	43.27428817749024	230.2701721191407	742.9453125000001	10.90312385559082	144.3579406738282	777.0960693359377	58.31563568115236	
45	0.44	276.3298034667969	981.2288208007815	-406.5625305175782	87.89339447021486	985.5693359375002	-316.9503784179688	88.97349548339845	979.7124633789065	-216.8353729248047	279.3002014160157	973.5722656250002	-153.5794372558594	202.8714447021485	902.5222778320315	-476.3356933593751	189.3787231445313	474.6309204101564	-433.1495361328126	174.0491638183594	477.8108520507814	-298.6580810546876	157.4442749023438	415.4619750976564	-431.7711486816407	211.3826293945313	397.0586242675782	-367.1832275390626	70.0597381591797	70.38425445556642	-380.7176513671876	90.21280670166017	85.43287658691408	-289.3302612304688	6.697261333465578	20.8202075958252	-316.5827941894532	220.1634063720704	16.73198127746582	-300.1351318359376	224.8221588134766	36.21707916259766	-360.0033264160157	174.5320739746094	19.73986244201661	-418.4927673339845	230.8570556640626	877.6622314453127	-89.79360198974611	377.9312133789063	491.7745056152345	-84.2789993286133	424.8371887207032	487.0187072753907	-207.1374053955079	355.4215698242188	438.9004821777345	-87.9136199951172	434.5962219238282	421.6277160644532	-122.4996414184571	278.4977416992188	98.99446868896487	-141.0016174316407	341.5387573242188	110.488510131836	-215.2413177490235	248.9729309082032	53.36627578735353	-216.2508239746094	449.8777465820314	28.89900398254395	-178.8880920410157	440.4209289550782	52.29899215698244	-126.0574645996094	373.5493774414063	32.39303588867188	-81.83740234375001	166.68798828125	1473.655151367188	-283.4315185546876	73.29163360595705	1223.974365234375	-277.3297729492188	322.9723815917969	1167.4951171875	-272.0502319335938	281.9574584960938	1373.19873046875	-276.5404052734376	76.13741302490236	1251.119750976563	-396.8199157714845	106.4921951293946	1403.718872070313	-370.3231201171876	163.4368896484375	1405.974731445313	-459.7512207031251	218.5724182128907	1394.232177734375	-484.5325622558595	235.603500366211	1087.664184570313	-548.9107055664064	183.7334136962891	1065.949340820313	-482.829071044922	207.045394897461	1045.417724609375	-547.8154907226564	384.4014587402345	876.8073730468752	-481.8046264648439	354.7590332031251	867.298278808594	-554.8229980468751	440.7501831054689	791.7092285156252	-478.2969970703126	375.6553649902344	786.6813964843752	-562.3035888671876	67.77489471435548	1249.2587890625	-161.0297088623047	106.2626266479492	1400.679809570313	-176.9968872070313	160.2761535644532	1405.51708984375	-95.87422180175783	199.6298217773438	1402.119995117188	-69.80297851562501	135.0611419677735	1099.034301757813	0.7879310846328738	113.5471420288086	1084.701904296875	-87.90647125244142	89.60289764404298	1059.728759765625	-27.5604362487793	217.8739013671876	843.8187255859377	-10.54640293121338	164.5859832763672	852.5938110351565	45.84004592895509	233.2286224365235	742.0992431640626	15.96384048461914	145.3465118408203	776.3931274414065	59.62623596191408	
46	0.45	288.4308776855469	979.3840942382815	-405.7840576171876	100.1218185424805	984.3170166015627	-316.0794982910157	101.3065643310547	978.3579711914065	-216.0498809814454	291.6994323730469	971.9025878906252	-152.7109680175782	214.3340911865235	900.9042968750002	-475.4643859863282	193.537826538086	473.7251586914064	-432.7810668945314	178.090087890625	477.1062927246095	-298.1992797851563	160.9773406982422	415.0603637695314	-431.3768310546876	214.6353607177735	395.9968566894532	-366.9015197753907	70.27524566650392	70.63496398925783	-380.5632324218751	90.61114501953126	85.52126312255861	-289.1322631835938	6.692898273468019	21.29145050048828	-316.4611816406251	220.0856933593751	16.65386772155762	-300.1188049316407	224.791732788086	36.11335754394532	-360.0321350097657	174.4455261230469	19.68240737915039	-418.5296936035157	242.5800933837891	876.4315185546877	-89.32155609130861	390.8940429687501	490.430389404297	-84.66586303710939	436.6591186523439	485.3506774902345	-207.8085937500001	370.7645874023438	436.394500732422	-87.92046356201173	450.418426513672	422.6798706054689	-122.0357666015625	318.4986877441407	91.26598358154298	-136.3848419189453	380.9105224609376	105.7334060668946	-210.3316345214844	293.1152343750001	42.44354629516602	-211.2789001464844	494.4798583984376	31.68557739257813	-171.9886779785157	483.143035888672	55.12828063964845	-119.5174560546875	417.3261108398439	31.85699272155762	-75.48532104492189	179.4608764648438	1472.144897460938	-281.7184448242188	85.77894592285158	1222.567138671875	-276.4680175781251	335.4287109375001	1165.669189453125	-270.6860351562501	294.6288757324219	1371.594970703125	-274.6358337402344	89.37275695800783	1250.178588867188	-396.2602844238282	119.582145690918	1402.564697265625	-369.1614074707032	177.1079864501953	1405.147705078125	-458.4905395507814	232.4877471923829	1393.646484375	-482.6658020019532	254.0539550781251	1088.084594726563	-549.4431152343751	201.8721160888672	1064.989868164063	-484.0457763671876	226.3232574462891	1045.173095703125	-548.9225463867189	406.6138000488282	880.3601684570315	-481.3753356933595	377.7915954589844	870.0815429687502	-554.4893798828126	465.0613708496095	796.8311767578127	-477.2308349609376	400.7579040527345	789.7982177734377	-561.5787353515626	80.22441864013673	1247.308471679688	-160.6626129150391	118.6769485473633	1398.850708007813	-175.9587707519532	172.0221252441407	1403.775756835938	-94.73917388916017	210.9316711425782	1400.393920898438	-68.23308563232423	141.5478668212891	1098.751098632813	2.305683851242066	121.5141754150391	1084.230590820313	-86.66841125488283	96.11836242675784	1059.803833007813	-26.66671752929688	222.7696838378907	842.9373168945315	-6.025634765625002	167.3131866455078	851.9267578125002	48.29885864257814	236.6273956298829	741.2105102539064	20.82472610473633	146.9676361083985	775.5904541015627	60.8399124145508	
